<svg width="55" height="49" viewBox="0 0 55 49" fill="none" xmlns="http://www.w3.org/2000/svg">
<path d="M22.1443 36H8C4.68629 36 2 33.3137 2 30V8C2 4.68629 4.68629 2 8 2H44C47.3137 2 50 4.68629 50 8V22.8194" stroke="#20BCC6" stroke-width="4" stroke-linecap="round"/>
<path d="M34 16.7679C35.3333 17.5377 35.3333 19.4623 34 20.2321L22.75 26.7272C21.4167 27.497 19.75 26.5348 19.75 24.9952V12.0048C19.75 10.4652 21.4167 9.50296 22.75 10.2728L34 16.7679Z" fill="#20BCC6"/>
<path d="M29 35.6286C29 35.301 29.0171 34.981 29.0513 34.6686C29.0855 34.3562 29.1667 34.0781 29.2949 33.8343C29.4316 33.5829 29.6282 33.381 29.8846 33.2286C30.141 33.0762 30.4957 33 30.9487 33C31.3932 33 31.7436 33.0762 32 33.2286C32.265 33.381 32.4615 33.5829 32.5897 33.8343C32.7265 34.0781 32.812 34.3562 32.8462 34.6686C32.8803 34.981 32.8974 35.301 32.8974 35.6286V39.2171H36.4103V35.6286C36.4103 35.301 36.4274 34.981 36.4615 34.6686C36.4957 34.3562 36.5769 34.0781 36.7051 33.8343C36.8419 33.5829 37.0385 33.381 37.2949 33.2286C37.5513 33.0762 37.906 33 38.359 33C38.8034 33 39.1538 33.0762 39.4103 33.2286C39.6752 33.381 39.8718 33.5829 40 33.8343C40.1368 34.0781 40.2222 34.3562 40.2564 34.6686C40.2906 34.981 40.3077 35.301 40.3077 35.6286V46.3714C40.3077 46.7067 40.2906 47.0305 40.2564 47.3429C40.2222 47.6552 40.1368 47.9371 40 48.1886C39.8718 48.4324 39.6752 48.6305 39.4103 48.7829C39.1538 48.9276 38.8034 49 38.359 49C37.906 49 37.5513 48.9276 37.2949 48.7829C37.0385 48.6305 36.8419 48.4324 36.7051 48.1886C36.5769 47.9371 36.4957 47.6552 36.4615 47.3429C36.4274 47.0305 36.4103 46.7067 36.4103 46.3714V42.5771H32.8974V46.3714C32.8974 46.7067 32.8803 47.0305 32.8462 47.3429C32.812 47.6552 32.7265 47.9371 32.5897 48.1886C32.4615 48.4324 32.265 48.6305 32 48.7829C31.7436 48.9276 31.3932 49 30.9487 49C30.4957 49 30.141 48.9276 29.8846 48.7829C29.6282 48.6305 29.4316 48.4324 29.2949 48.1886C29.1667 47.9371 29.0855 47.6552 29.0513 47.3429C29.0171 47.0305 29 46.7067 29 46.3714V35.6286Z" fill="#20BCC6"/>
<path d="M49.4615 33C50.2393 33 50.9615 33.0876 51.6282 33.2629C52.3034 33.4381 52.8889 33.701 53.3846 34.0514C53.8889 34.3943 54.2821 34.8248 54.5641 35.3429C54.8547 35.861 55 36.4667 55 37.16V44.2457C55 44.84 54.9274 45.3657 54.7821 45.8229C54.6368 46.2724 54.4444 46.6648 54.2051 47C53.9744 47.3276 53.7094 47.6095 53.4103 47.8457C53.1111 48.0743 52.8077 48.261 52.5 48.4057C51.765 48.7562 50.9316 48.9543 50 49H45.7436C45.2564 49 44.8803 48.9276 44.6154 48.7829C44.3504 48.6305 44.1581 48.4324 44.0385 48.1886C43.9188 47.9371 43.8462 47.6552 43.8205 47.3429C43.8034 47.0305 43.7949 46.7067 43.7949 46.3714V35.6057C43.7949 35.2781 43.8034 34.9581 43.8205 34.6457C43.8462 34.3333 43.9188 34.0552 44.0385 33.8114C44.1581 33.5676 44.3504 33.3733 44.6154 33.2286C44.8803 33.0762 45.2564 33 45.7436 33H49.4615ZM47.6923 35.6743V46.28H49.359C49.7265 46.2648 50.0556 46.1886 50.3462 46.0514C50.4658 45.9981 50.5855 45.9257 50.7051 45.8343C50.8248 45.7429 50.9316 45.6362 51.0256 45.5143C51.1197 45.3848 51.1923 45.2324 51.2436 45.0571C51.3034 44.8819 51.3333 44.68 51.3333 44.4514V37.7086C51.3333 37.4571 51.3034 37.2362 51.2436 37.0457C51.1923 36.8476 51.1197 36.6762 51.0256 36.5314C50.9316 36.3867 50.8248 36.2648 50.7051 36.1657C50.5855 36.0667 50.4658 35.9867 50.3462 35.9257C50.0556 35.781 49.7265 35.6971 49.359 35.6743H47.6923Z" fill="#20BCC6"/>
</svg>
