<svg width="60" height="54" viewBox="0 0 60 54" fill="none" xmlns="http://www.w3.org/2000/svg">
<path d="M39.9631 1.12863C39.1647 1.29971 38.3093 1.74166 37.7533 2.31192C37.4967 2.56854 36.1281 4.19379 34.7167 5.90457C30.7961 10.6805 29.6128 11.764 27.0324 12.9615C26.1485 13.375 13.2891 17.9941 6.6741 20.2609C5.71891 20.5888 4.67818 21.4584 4.25049 22.2711C3.80853 23.1407 3.76576 24.3953 4.12218 25.4217C4.29326 25.8922 4.42157 26.3199 4.42157 26.3769C4.42157 26.434 3.89407 26.6621 3.23827 26.8759C1.72708 27.3749 1 28.0307 1 28.9003C1 29.4991 2.82483 34.9594 3.22402 35.5866C3.50915 36.0286 4.22197 36.3708 4.835 36.3708C5.12013 36.3708 5.8187 36.1854 6.38897 35.9858C6.94497 35.772 7.50097 35.6294 7.60077 35.6722C7.70057 35.7007 7.8859 36.0856 8.02846 36.5276C8.5417 38.1528 10.0529 39.2506 11.7637 39.2363C12.505 39.2221 13.9164 38.7658 22.5986 35.715C28.0874 33.7761 33.0914 32.0653 33.7187 31.9085C35.3725 31.5093 36.9549 31.4237 38.7655 31.6376C40.5048 31.8372 40.7757 31.7659 40.7757 31.1244C40.7757 30.6824 40.5048 30.5541 39.0792 30.3402C37.5395 30.1264 34.9448 30.2547 33.4336 30.6254C32.8063 30.7822 30.3684 31.5806 28.0019 32.4074C25.6353 33.2343 23.6536 33.9186 23.5823 33.9186C23.454 33.9186 17.7372 17.8373 17.837 17.7517C17.8655 17.7232 19.8329 17.0104 22.2137 16.1835C27.175 14.43 28.1872 14.0023 29.7411 12.9473C31.2808 11.9208 32.678 10.4667 35.9142 6.5176C39.0792 2.65408 39.3786 2.41172 40.9325 2.41172C42.073 2.41172 42.8429 2.75388 43.5129 3.53798C43.9406 4.05122 44.3398 5.04917 46.1361 10.153C47.2909 13.4605 49.187 18.8352 50.3276 22.0857C50.3276 22.0857 52.0839 27.868 52.409 28.0022C52.7341 28.1364 53 28.0002 52.851 28.0449C52.7019 28.0896 53.3357 28.0164 53.464 27.7883C53.5923 27.546 53.4497 27.0042 52.6086 24.6376C52.0669 23.0694 51.6106 21.7721 51.6106 21.7436C51.6106 21.715 51.8815 21.5297 52.2237 21.3301C52.9508 20.9024 53.8489 19.9615 54.3622 19.0776C55.4599 17.1672 55.4314 14.6153 54.2766 12.6479C53.1361 10.6805 50.4986 9.39741 48.1321 9.63977C47.6901 9.68254 47.3337 9.6968 47.3337 9.65403C47.3337 9.4687 45.3235 3.93717 45.0812 3.4667C44.7818 2.88218 43.9834 2.06956 43.3134 1.65612C42.8429 1.37099 41.4315 0.986065 40.9183 1.00032C40.7187 1.01458 40.291 1.07161 39.9631 1.12863ZM50.6697 11.2508C53.3927 12.2772 54.6473 15.4992 53.3357 18.1652C52.908 19.0348 51.6534 20.3749 51.2685 20.3749C51.1402 20.3749 47.8897 11.4076 47.904 11.0654C47.904 10.8373 49.8999 10.9656 50.6697 11.2508ZM19.4052 26.3484C20.9591 30.7822 22.2137 34.4176 22.1994 34.4319C22.1852 34.4461 19.9612 35.2445 17.2524 36.1997C12.7474 37.7821 12.2627 37.9247 11.5071 37.8819C10.6517 37.8249 10.1527 37.554 9.66796 36.8982C9.32581 36.442 5.13439 24.4666 5.13439 23.9676C5.14865 23.3973 5.60486 22.4849 6.10383 22.0572C6.33194 21.8576 7.20159 21.4584 8.01421 21.1733C8.81257 20.8882 10.9938 20.1183 12.8329 19.4625C14.672 18.8067 16.2687 18.2792 16.3828 18.2792C16.5111 18.2935 17.5661 21.1305 19.4052 26.3484ZM6.03255 30.8962C6.64558 32.5928 7.1303 34.0612 7.1303 34.1467C7.1303 34.3463 5.2627 35.0592 4.77798 35.0592C4.57839 35.0592 4.36454 34.9451 4.279 34.774C3.87982 34.0184 2.28309 29.1142 2.35437 28.8291C2.4114 28.6009 2.68227 28.4441 3.45212 28.1733C4.02238 27.9737 4.59264 27.8026 4.72095 27.8026C4.89203 27.7883 5.21993 28.5582 6.03255 30.8962Z" fill="#20BCC6" stroke="#20BCC6" stroke-width="2"/>
<path d="M24.1434 36.3011C23.8748 36.6989 23.8324 36.6105 25.9106 40.7354C27.8616 44.6099 27.9889 45.0814 27.4516 46.2157C26.8861 47.4385 25.4017 47.9835 24.1575 47.4237C23.4931 47.1291 23.2527 46.7903 22.0086 44.3595C22.0086 44.3595 21.6414 42.712 20.8776 42.135C20.4234 41.7919 19.5345 41.6046 19.5345 41.6046L18.1914 41.0595L17.6824 40.0578C17.3996 39.4979 17.0603 38.9823 16.9331 38.9087C16.6503 38.7319 16 39.1149 16 39.4537C16 39.5863 16.2828 40.2345 16.6503 40.9122C16.6503 40.9122 16.88 41.8085 17.2865 42.1644C17.6556 42.4876 18.4458 42.6064 18.4458 42.6064C19.082 42.8568 19.7041 43.122 19.8172 43.1809C19.9303 43.2546 20.4817 44.2269 21.0472 45.3465C21.5986 46.4514 22.2348 47.5711 22.461 47.8068C23.1396 48.5581 24.1434 49.0001 25.1896 49.0001C26.8013 49.0148 28.003 48.1898 28.6958 46.6135C28.9927 45.9505 29.0351 45.6706 28.9785 44.8456C28.9078 43.9175 28.7806 43.5934 27.0982 40.1756C26.1086 38.1573 25.1896 36.3895 25.0765 36.2422C24.7937 35.9033 24.3979 35.9181 24.1434 36.3011Z" fill="#20BCC6" stroke="#20BCC6" stroke-width="2"/>
<circle cx="49.5" cy="43.5" r="9" stroke="#20BCC6" stroke-width="3"/>
<path d="M54.9766 35.2015L44.0225 51.7983" stroke="#20BCC6" stroke-width="3"/>
</svg>
