<svg width="69" height="63" viewBox="0 0 69 63" fill="none" xmlns="http://www.w3.org/2000/svg">
<path style="mix-blend-mode:multiply" opacity="0.85" d="M69 54.7093C69 50.1325 53.5531 46.4187 34.5006 46.4187C15.4481 46.4187 0 50.1286 0 54.7093C0 59.2901 15.4469 62.9999 34.5006 62.9999C53.5544 62.9999 69 59.2888 69 54.7093Z" fill="url(#paint0_radial_3837_112081)"/>
<path d="M11.2814 23.6274C11.2814 23.6274 10.7344 23.3763 10.7344 24.0118V51.945C10.7344 52.7962 13.9818 53.3677 14.5237 53.5521C16.4636 54.2138 28.8117 57.819 32.9748 59.1058C33.906 59.3947 34.8061 59.5229 35.7398 59.8054L35.776 29.4556L11.9979 23.3423L11.2814 23.6274Z" fill="url(#paint1_linear_3837_112081)"/>
<path d="M59.0366 24.3245L58.7262 52.9834L35.7448 59.8042V29.3093L59.0366 24.3245Z" fill="url(#paint2_linear_3837_112081)"/>
<path opacity="0.6" d="M37.3394 30.5254L46.5332 33.5918L57.7006 25.313L47.0648 35.2774L37.3394 30.5254Z" fill="#0D7277"/>
<path opacity="0.3" d="M47.3687 46.9275L36.5751 59.4615L47.3687 50.6073L57.8533 53.2893L47.3687 46.9275Z" fill="#118E95"/>
<path style="mix-blend-mode:multiply" opacity="0.6" d="M53.7418 51.601L51.6351 52.2379L50.7931 54.6872L49.7055 52.4406L47.4875 52.2497L49.0097 50.3182L48.561 47.835L50.5604 48.8549L52.4835 47.4937L52.1563 50.0135L53.7418 51.601Z" fill="url(#paint3_linear_3837_112081)"/>
<path d="M57.1627 23.3425C55.0379 22.7906 52.8949 22.2702 50.7765 21.6987C47.1761 20.7271 43.5497 19.868 39.9441 18.9239C37.1597 18.1994 34.7386 17.7104 31.9167 18.44C30.0751 18.9173 28.1921 19.256 26.335 19.6719C22.1538 20.6081 17.9636 21.5026 13.7773 22.418L10.8829 23.0496L35.6827 29.6455L53.5299 25.2438L58.456 24.1637L57.1627 23.3425Z" fill="#20BEC6"/>
<path d="M58.9926 24.5464L43.9492 37.423V48.3068L58.69 53.1687L58.9926 24.5464Z" fill="#20BEC6"/>
<path d="M45.9913 41.162C48.4834 39.8098 57.1005 35.4475 58.8865 34.5569L58.9305 30.3528C57.2932 31.0315 47.679 35.4435 46.656 35.7142L43.9492 37.4142V42.1689C44.6398 41.8577 45.3227 41.5242 45.9913 41.162Z" fill="url(#paint4_linear_3837_112081)"/>
<path style="mix-blend-mode:multiply" opacity="0.6" d="M52.9943 48.3741L50.7091 47.226L48.0682 48.6252L48.9153 45.8516L47.1875 43.9137L49.9978 43.4978L51.5717 41.0342L52.4615 43.4991L55.1605 43.8888L52.9012 45.7601L52.9943 48.3741Z" fill="url(#paint5_linear_3837_112081)"/>
<path opacity="0.4" d="M47.5923 34.1306C47.5923 34.1306 49.6434 34.7439 50.0236 36.8126C50.4038 38.8814 52.8339 47.3132 48.2001 49.8436L46.149 48.8471L45.5411 36.1235L47.5923 34.1306Z" fill="#AA1F1F"/>
<path d="M35.5314 29.5696L51.3947 35.3547L51.5473 44.9347L36.4807 59.3191L35.5172 59.2681L35.5314 29.5696Z" fill="url(#paint6_linear_3837_112081)"/>
<path style="mix-blend-mode:multiply" opacity="0.6" d="M43.639 40.889L41.183 40.1842L38.8422 42.0489L39.1694 39.1655L37.1183 37.5806L39.8044 36.6508L40.9037 33.9387L42.228 36.1971L44.9516 36.0781L43.0712 38.3364L43.639 40.889Z" fill="url(#paint7_linear_3837_112081)"/>
<path style="mix-blend-mode:multiply" opacity="0.3" d="M13.3672 34.1586L15.8218 33.4001L18.1639 35.4061L17.8367 32.3043L19.8866 30.6004L17.2005 29.6L16.1012 26.6826L14.7781 29.111L12.0532 28.9841L13.9349 31.4138L13.3672 34.1586Z" fill="url(#paint8_linear_3837_112081)"/>
<path style="mix-blend-mode:multiply" opacity="0.6" d="M48.4524 45.025L46.903 45.4094L46.2047 47.1525L45.4972 45.4853L43.8975 45.2656L45.0705 43.9213L44.8351 42.1062L46.246 42.9183L47.6893 42.0029L47.3608 43.8167L48.4524 45.025Z" fill="url(#paint9_linear_3837_112081)"/>
<path style="mix-blend-mode:multiply" opacity="0.3" d="M13.2251 49.5726L15.0577 50.0277L15.8841 52.0886L16.7208 50.1166L18.6116 49.8564L17.2252 48.2676L17.5032 46.1204L15.8349 47.0815L14.1291 45.9988L14.5158 48.1434L13.2251 49.5726Z" fill="url(#paint10_linear_3837_112081)"/>
<path style="mix-blend-mode:multiply" opacity="0.6" d="M27.6503 41.1566L28.9216 42.1818L28.8129 44.0831L30.1928 42.8618L31.7732 43.3535L31.2675 41.613L32.275 40.0503L30.6119 40.1824L29.6704 38.7178L29.188 40.5224L27.6503 41.1566Z" fill="url(#paint11_linear_3837_112081)"/>
<path style="mix-blend-mode:multiply" opacity="0.6" d="M27.5078 51.1053L29.3404 51.5603L30.1668 53.6225L31.0035 51.6506L32.8943 51.3903L31.5079 49.8002L31.7873 47.653L30.1176 48.6142L28.4118 47.5327L28.7998 49.6773L27.5078 51.1053Z" fill="url(#paint12_linear_3837_112081)"/>
<path style="mix-blend-mode:multiply" opacity="0.6" d="M23.0732 35.1518L25.7904 35.8266L27.0164 38.8852L28.2567 35.9599L31.0631 35.5742L29.0055 33.2177L29.4193 30.0323L26.9427 31.4576L24.4131 29.8518L24.9873 33.0334L23.0732 35.1518Z" fill="url(#paint13_linear_3837_112081)"/>
<path style="mix-blend-mode:multiply" opacity="0.4" d="M18.583 44.8051L21.1618 44.6142L23.1043 46.9484L23.3655 44.0218L25.7206 42.875L23.2466 41.3973L22.7086 38.4812L20.9368 40.4453L18.261 39.764L19.6655 42.3924L18.583 44.8051Z" fill="url(#paint14_linear_3837_112081)"/>
<path style="mix-blend-mode:multiply" opacity="0.6" d="M53.094 37.8145L51.5446 38.199L50.845 39.9421L50.1388 38.2748L48.5391 38.0551L49.7121 36.7108L49.4767 34.8958L50.8876 35.7078L52.3309 34.7925L52.0024 36.6062L53.094 37.8145Z" fill="url(#paint15_linear_3837_112081)"/>
<path style="mix-blend-mode:multiply" opacity="0.6" d="M48.3336 30.0467L46.7842 30.4311L46.0846 32.1756L45.3785 30.5083L43.7787 30.2873L44.9517 28.9443L44.715 27.128L46.1273 27.94L47.5693 27.0247L47.2421 28.8384L48.3336 30.0467Z" fill="url(#paint16_linear_3837_112081)"/>
<path d="M32.8568 29.989C32.8568 29.989 34.6803 31.1385 34.3764 35.2772C34.0725 39.416 35.2506 59.4992 32.668 59.0376L34.7566 59.6509L35.4356 33.4373C35.4356 33.4373 35.896 30.448 32.8568 29.989Z" fill="#7AD8DD"/>
<path d="M46.2992 35.4015C46.0957 35.3974 45.8989 35.3272 45.7379 35.2014C42.2659 36.6747 38.7568 38.0561 35.2107 39.3454C35.1951 41.796 35.124 44.5199 35.0309 47.1509C39.0633 45.0377 43.0893 42.9206 47.2071 40.9774C47.983 40.6139 48.7568 40.2542 49.5285 39.8986C49.3513 37.7775 48.6853 35.4969 46.2992 35.4015Z" fill="url(#paint17_linear_3837_112081)"/>
<path d="M38.1218 29.5544C43.8536 27.0698 59.0728 24.9292 59.0728 24.9292C59.3017 23.3966 56.1862 23.1664 56.1862 23.1664C56.1862 23.1664 37.5734 28.6076 35.5973 28.9921C33.6212 29.3766 12.1218 22.8591 12.1218 22.8591C9.92325 22.9363 10.7548 23.9327 10.7548 23.9327C13.0336 23.2436 32.9383 29.7584 34.5342 30.8307C36.1301 31.903 34.4528 59.5 34.4528 59.5C35.4408 60.1133 36.6177 59.5353 36.566 59.4556L36.575 59.4634L48.8546 48.479C49.7186 47.7768 50.8088 46.7986 51.3946 45.9133C52.4745 44.2788 51.9016 36.3831 51.2938 35.3866C50.6859 34.3902 39.6194 31.835 37.3393 30.5325C37.3393 30.526 37.2462 30.1376 38.1218 29.5544ZM38.0998 32.0573C40.3785 33.4369 50.5333 34.8426 50.6859 36.4524C50.8592 38.2831 51.0248 41.2031 51.0907 43.0443C51.1644 45.0712 48.565 47.6212 47.1488 49.108C45.4249 50.9152 43.56 51.9849 41.7455 53.7005C40.5492 54.8277 39.4176 55.968 38.092 56.9448C35.9995 58.48 35.9116 56.1877 35.8689 54.4969C35.8133 52.2516 35.7797 50.0142 35.7616 47.7689C35.7331 44.3271 35.7616 40.8867 35.8172 37.4449C35.8301 36.6507 35.8452 35.8569 35.8624 35.0636C35.8715 34.6216 36.103 33.5546 35.909 33.1662C35.9281 33.2065 35.9492 33.2458 35.9724 33.2839C35.9724 33.2839 35.8236 30.679 38.0998 32.0586V32.0573Z" fill="#20BEC6"/>
<path style="mix-blend-mode:multiply" opacity="0.6" d="M38.281 43.6011L36.4704 44.7531L35.1345 43.9842C35.1008 45.2919 35.0569 46.6179 35.0051 47.9072L35.5224 47.9791L36.4122 50.0714L37.2916 47.8771L39.2406 47.3933L37.8671 45.8738L38.281 43.6011Z" fill="url(#paint18_linear_3837_112081)"/>
<path style="mix-blend-mode:multiply" opacity="0.6" d="M45.9345 50.3407L43.3415 50.4532L42.0184 48.1948L40.9192 50.9069L38.233 51.8367L40.2842 53.4216L39.9738 56.1494L45.9345 50.3407Z" fill="url(#paint19_linear_3837_112081)"/>
<path d="M56.8652 25.2382C56.8652 25.2382 58.7638 24.2404 58.6124 28.6093C58.4611 32.9783 58.3085 50.5311 58.3085 50.5311C58.3085 50.5311 58.3848 52.8313 57.8533 53.2903L58.69 53.17C58.69 53.17 59.2966 25.0839 58.9927 24.5477C58.6887 24.0116 56.8652 25.2382 56.8652 25.2382Z" fill="#20BEC6"/>
<path style="mix-blend-mode:hard-light" d="M58.844 25.7736C58.844 25.7736 59.3755 24.394 56.0337 24.8582C52.6919 25.3224 38.6689 28.3026 37.0355 29.3762C35.6827 30.2654 37.2644 30.7558 41.518 33.0547C41.518 33.0547 36.3902 30.2955 35.6685 30.6786C35.04 31.0121 35.2883 36.5801 35.2883 36.5801C35.2883 36.5801 35.0607 30.8264 33.3898 29.8352L24.4248 26.617C24.4248 26.617 32.4017 29.2611 35.3646 29.299C36.6928 29.316 50.0277 25.3904 55.7983 24.394C56.6221 24.2514 58.9164 23.4734 58.844 25.7736Z" fill="url(#paint20_linear_3837_112081)"/>
<path style="mix-blend-mode:hard-light" d="M47.3688 49.381C47.3688 49.381 50.9382 46.6009 51.3184 45.318C52.2302 42.2529 51.2434 38.6489 51.2434 38.6489C51.2434 38.6489 51.5473 43.401 50.7869 45.3939C50.258 46.7839 47.3688 49.381 47.3688 49.381Z" fill="url(#paint21_linear_3837_112081)"/>
<path style="mix-blend-mode:multiply" opacity="0.6" d="M44.9866 54.9069L44.1796 53.4841L43.4696 55.1684L41.7819 55.7268L43.0506 56.735L42.9277 57.6935L45.6306 56.8985L45.4961 56.2512L46.6898 54.8572L44.9866 54.9069Z" fill="url(#paint22_linear_3837_112081)"/>
<path style="mix-blend-mode:multiply" opacity="0.6" d="M58.1909 29.2477L55.8552 27.6196L55.8074 30.2245L53.314 31.6708L56.1915 32.4645L57.0864 34.8759L58.7858 32.9L58.8905 32.9065L58.9319 29.0594L58.1909 29.2477Z" fill="url(#paint23_linear_3837_112081)"/>
<path style="mix-blend-mode:multiply" opacity="0.6" d="M58.8426 38.6808L58.5076 38.8939L57.0967 38.0806L57.3321 39.8969L56.1591 41.2412L57.7588 41.4609L58.4663 43.1282L58.8051 42.2821L58.8426 38.6808Z" fill="url(#paint24_linear_3837_112081)"/>
<path style="mix-blend-mode:multiply" opacity="0.6" d="M58.69 53.1692L58.7198 50.3473L56.463 48.7742L56.4152 51.3804L55.2732 52.042L58.69 53.1692Z" fill="url(#paint25_linear_3837_112081)"/>
<path style="mix-blend-mode:multiply" opacity="0.3" d="M12.3392 38.8993L11.2399 35.9819L10.7394 36.8973V42.7648L10.9605 42.6968L13.3014 44.7028L12.9742 41.601L15.024 39.901L12.3392 38.8993Z" fill="url(#paint26_linear_3837_112081)"/>
<path style="mix-blend-mode:multiply" opacity="0.4" d="M23.0939 54.5536L20.563 52.9478L21.0299 55.5304L25.6792 56.9139L25.1554 56.3137L25.5693 53.1282L23.0939 54.5536Z" fill="url(#paint27_linear_3837_112081)"/>
<path style="mix-blend-mode:multiply" opacity="0.6" d="M35.1343 44.1369L33.7686 43.8623L34.6299 45.8042L33.3638 47.6428L35.0088 47.9108L35.1343 44.1369Z" fill="url(#paint28_linear_3837_112081)"/>
<path d="M34.5666 58.9619C34.3079 57.3129 34.3765 55.5894 35.2882 49.4578C35.2882 49.4578 34.5743 59.6027 36.7315 58.9227C36.7289 58.9227 34.714 59.8773 34.5666 58.9619Z" fill="url(#paint29_linear_3837_112081)"/>
<path opacity="0.4" d="M20.2748 21.8242L24.1649 22.5447L28.6901 22.3251L27.296 23.2666L30.3636 24.1623L25.3703 24.0433L22.4759 24.8397L21.0973 23.7988L16.5527 23.3686L20.43 22.8651L20.2748 21.8242Z" fill="url(#paint30_linear_3837_112081)"/>
<path d="M33.6459 24.1741L37.536 24.8946L42.0625 24.6749L40.667 25.6164L43.7347 26.5135L38.7414 26.3945L35.8483 27.1909L34.4684 26.15L29.9238 25.7184L33.8011 25.2163L33.6459 24.1741Z" fill="url(#paint31_linear_3837_112081)"/>
<path opacity="0.4" d="M30.6001 19.4595L33.4854 19.9943L36.8428 19.8322L35.8068 20.5305L38.083 21.1947L34.3791 21.1071L32.2335 21.6969L31.2106 20.9254L27.839 20.605L30.7152 20.2323L30.6001 19.4595Z" fill="url(#paint32_linear_3837_112081)"/>
<path d="M44.9838 22.0149L47.8691 22.5497L51.2265 22.3863L50.1919 23.0846L52.4667 23.7502L48.7641 23.6612L46.6172 24.2523L45.5943 23.4795L42.224 23.1604L45.0989 22.7877L44.9838 22.0149Z" fill="url(#paint33_linear_3837_112081)"/>
<path opacity="0.3" d="M44.3595 20.063C43.6404 19.863 42.9162 19.7727 42.223 19.5962L42.2541 19.8002L40.3284 20.05L42.5787 20.2696L43.2641 20.7862L44.7009 20.3939L45.6062 20.4148C45.1846 20.2893 44.7682 20.1781 44.3595 20.063Z" fill="url(#paint34_linear_3837_112081)"/>
<path opacity="0.5" d="M24.2721 56.2028L25.0726 56.4539V28.4554C25.0726 28.4554 24.9562 26.6926 27.3876 26.1565L24.7286 26.7698C24.7286 26.7698 23.5129 26.7698 23.7406 28.9928C23.9682 31.2159 24.2721 56.2028 24.2721 56.2028Z" fill="#5B0909"/>
<path d="M24.095 56.5346L24.2476 27.8679C24.2476 27.8679 24.1455 26.7433 25.1529 26.5393C26.1604 26.3353 48.5586 20.7136 48.5586 20.7136L41.7211 18.9771L19.588 24.8014C19.588 24.8014 18.7771 24.9034 18.7771 26.4373V54.8987L24.095 56.5346Z" fill="url(#paint35_linear_3837_112081)"/>
<path d="M38.9276 22.9255C32.7858 24.4411 25.8397 26.1673 25.109 26.3935C23.7575 26.8132 23.9153 28.2242 23.9386 28.3903V56.5353H24.2425V28.3772V28.3498C24.2334 28.2974 24.0265 27.0486 25.2008 26.6838C25.9121 26.4628 32.7988 24.7524 38.9172 23.242C38.9035 23.1366 38.907 23.0297 38.9276 22.9255Z" fill="#FFC969"/>
<path opacity="0.5" d="M45.125 56.8146L44.3257 57.0669V29.0684C44.3257 29.0684 44.4408 27.3057 42.0107 26.7695L44.6697 27.3828C44.6697 27.3828 45.8854 27.3828 45.6565 29.6059C45.4276 31.8289 45.125 56.8146 45.125 56.8146Z" fill="#5B0909"/>
<path d="M45.3021 57.1457L45.1508 28.4816C45.1508 28.4816 45.2516 27.357 44.239 27.153C43.2264 26.949 20.3833 20.714 20.3833 20.714L27.2208 19.2834L49.8104 25.4151C49.8104 25.4151 50.62 25.5171 50.62 27.051V55.5124L45.3021 57.1457Z" fill="url(#paint36_linear_3837_112081)"/>
<path d="M45.1508 57.145H45.4548V29.0026C45.478 28.8391 45.6358 27.4255 44.2831 27.0058C42.9768 26.6004 21.4723 20.9395 20.5709 20.7185L20.4998 21.0153C20.7196 21.0703 42.8967 26.8999 44.1938 27.2922C45.3694 27.657 45.1625 28.9045 45.1521 28.9581V57.145H45.1508Z" fill="#E55C00"/>
<path opacity="0.3" d="M24.8038 25.2381L31.4138 23.7042L27.3115 22.7078C27.3115 22.7078 25.1841 23.6271 24.8038 25.2381Z" fill="#5B0909"/>
<path opacity="0.3" d="M20.6251 24.4695C20.6251 24.4695 20.0173 27.4588 24.4247 27.6079L20.6251 24.4695Z" fill="#5B0909"/>
<path opacity="0.3" d="M31.5559 20.8683C29.5862 20.3308 23.5854 20.8683 23.5854 20.8683C23.5854 20.8683 26.0918 19.4115 27.9916 19.2585L32.1702 20.255C32.1702 20.255 31.768 20.9232 31.5559 20.8683Z" fill="#5B0909"/>
<path opacity="0.3" d="M46.5319 25.7731L45.8491 24.3228L38.3274 22.2541C38.3274 22.2541 35.1873 21.6631 33.6315 21.9547L31.5714 21.1805C31.5714 21.1805 29.2111 20.9504 27.6152 22.7131L31.4136 23.7096C31.4136 23.7096 35.7447 24.4 37.9019 23.5409C38.1464 23.5749 38.3908 23.7592 38.6313 23.7867L46.5319 25.7731Z" fill="#5B0909"/>
<path d="M50.9963 2.90333C47.7631 1.08436 42.9858 3.49963 41.1571 5.8652C38.1825 9.71629 35.5055 15.6165 35.4537 20.5726C36.337 20.8746 37.2747 21.144 38.1838 21.3572C39.234 19.8298 39.3129 17.5898 40.1755 15.9316C41.1936 13.9335 42.5681 12.1429 44.2299 10.65C45.465 9.55806 46.6211 8.44785 48.3684 8.84407C49.5672 9.11738 51.2136 10.7951 50.1453 12.0636C50.1505 12.0636 53.3138 4.20577 50.9963 2.90333Z" fill="url(#paint37_linear_3837_112081)"/>
<path d="M48.8857 2.13965C49.0759 2.19313 49.2737 2.244 49.4703 2.29356C49.2795 2.22782 49.0841 2.17637 48.8857 2.13965Z" fill="#FFE655"/>
<path d="M54.059 14.4569C54.0861 12.6157 54.3448 10.7431 54.1599 8.91633C53.9853 7.18629 53.627 4.64418 52.2665 3.42412C51.5319 2.77029 50.4676 2.53752 49.4717 2.28906C52.8718 3.46597 51.2189 8.58942 49.6088 10.6255C46.3291 14.7773 36.1446 14.9787 35.3065 21.0306L35.7333 21.8976C36.0605 21.9684 36.3777 22.0804 36.6774 22.231C38.2435 21.3457 41.0642 21.606 42.5954 21.5C46.1674 21.2529 49.1911 20.0224 52.026 17.7431C53.4783 16.5727 54.0344 16.3295 54.059 14.4569Z" fill="url(#paint38_linear_3837_112081)"/>
<path d="M36.8118 18.2185L36.6023 17.9961C36.685 17.9164 38.7038 16.0137 43.3389 14.234C48.1577 12.3849 50.8619 10.5215 51.343 5.98128C51.493 4.56507 51.1684 3.55163 50.3769 2.97364C49.0267 1.97458 46.6872 2.48457 45.8349 2.86772C45.7496 2.90564 45.6513 2.94618 45.5388 2.99194C43.7657 3.72555 39.0556 5.67005 35.8392 17.7385L35.5457 17.6588C38.7982 5.44382 43.6118 3.45747 45.4237 2.70818C45.5336 2.66372 45.6293 2.62449 45.7108 2.58657C46.6161 2.17988 49.0992 1.64897 50.558 2.71733C51.4439 3.37117 51.8111 4.47615 51.6469 6.00874C51.1464 10.7059 48.3788 12.6229 43.4463 14.5151C38.8681 16.2779 36.8312 18.2001 36.8118 18.2185Z" fill="url(#paint39_linear_3837_112081)"/>
<g style="mix-blend-mode:hard-light">
<path style="mix-blend-mode:hard-light" d="M50.457 9.26489C50.2214 9.74766 49.938 10.2051 49.6112 10.6301C49.0577 11.331 48.3063 11.9182 47.4373 12.4412C48.3128 12.9931 49.1806 13.558 50.0652 14.0483C51.2847 14.7244 52.4914 15.4737 53.6695 16.2282C53.9282 15.8124 54.0498 15.2998 54.0575 14.4563C54.0743 13.3501 54.1739 12.2333 54.2114 11.1179C53.1535 10.6144 50.6536 9.36035 50.457 9.26489Z" fill="url(#paint40_linear_3837_112081)"/>
</g>
<path d="M33.0962 19.484C31.3995 18.7583 29.9652 16.9903 28.2478 16.0187C26.5303 15.0471 24.7339 14.2089 23.1924 12.9261C21.1231 11.2013 18.578 8.97299 20.5825 6.17065C19.3268 6.08696 14.0929 9.10637 14.7822 9.61767L14.4214 13.0438C15.2323 14.1121 15.5297 15.1923 16.7493 16.0776C18.3426 17.2348 20.3381 17.9567 22.2198 18.3817C25.8475 19.2016 29.8437 19.9182 33.1725 20.997C32.9771 20.5163 32.9502 19.9824 33.0962 19.484Z" fill="url(#paint41_linear_3837_112081)"/>
<path d="M31.9748 11.6609C30.701 7.5718 28.3459 3.41211 24.4053 1.34206C22.9827 0.596693 20.735 -0.510903 19.412 0.263238C17.7074 1.2623 16.3754 3.58603 15.3175 5.19838C14.0682 7.10104 12.8331 8.5774 13.3996 10.9417C13.7022 12.2075 14.4574 13.7872 15.2916 14.7064C15.0187 13.2 14.6566 11.4046 15.7016 10.1296C16.8759 8.69117 19.6771 8.33941 21.4049 8.64148C24.276 9.14231 26.6815 12.1094 28.3886 14.2775C29.2111 15.3237 32.2529 20.5975 32.915 20.6446L33.9044 20.2222L33.8268 19.9267C32.9926 17.3283 32.8245 14.3913 31.9748 11.6609Z" fill="url(#paint42_linear_3837_112081)"/>
<path d="M24.4053 1.34204H24.3975C23.9811 3.00409 22.8663 8.14192 22.6736 9.03245C24.0315 9.61697 25.2601 10.6893 26.3439 11.8492C27.1949 9.83405 28.2657 7.92616 29.3883 6.04311C28.1183 4.10384 26.4823 2.43264 24.4053 1.34204Z" fill="url(#paint43_linear_3837_112081)"/>
<path d="M31.7939 20.5869C31.7641 20.5869 28.4896 20.0769 21.2731 18.2567C18.2455 17.493 16.2487 16.3108 15.3357 14.7429C14.6606 13.583 14.8404 12.6258 14.8766 12.4689C14.8908 8.61259 18.9944 8.36152 19.2659 8.34844C21.9288 7.83583 24.9344 9.67703 28.2025 13.8223C29.6979 15.7306 31.0186 17.7724 32.1482 19.9226L31.9969 20.2038C31.931 20.073 25.4103 7.46184 19.3125 8.65182H19.2879C19.1198 8.65182 15.1805 8.79828 15.1805 12.4846V12.5251C15.1805 12.533 14.9464 13.464 15.6086 14.5952C16.2099 15.6191 17.6933 17.034 21.352 17.9572C28.5516 19.7722 31.8702 20.3489 31.8999 20.3542L31.7939 20.5869Z" fill="url(#paint44_linear_3837_112081)"/>
<path d="M21.7567 22.5534C20.5928 23.9918 20.2889 24.7411 21.5795 25.8108C22.5262 26.5954 23.7083 27.1185 24.6627 27.8652C25.0675 23.0176 29.938 19.5994 34.0726 21.6341L33.6173 19.7942C29.8474 18.5794 24.4002 19.2816 21.7567 22.5534Z" fill="url(#paint45_linear_3837_112081)"/>
<path d="M24.8037 27.9706L24.5127 27.6895C24.523 27.6228 25.5771 21.1001 31.5597 20.8687L31.5714 21.1746C25.8383 21.397 24.814 27.9052 24.8037 27.9706Z" fill="url(#paint46_linear_3837_112081)"/>
<path d="M36.3527 19.7948L35.5923 22.248C36.2143 21.3326 39.6842 22.0832 40.7964 22.248C42.9109 22.567 45.5052 23.4929 46.3795 25.5708C46.88 24.2356 46.5657 22.1303 47.7335 21.0096C45.6915 17.5312 39.3725 18.2831 36.3527 19.7948Z" fill="url(#paint47_linear_3837_112081)"/>
<path d="M46.2397 25.6309C44.9244 22.3931 38.5861 22.0453 38.5227 22.0413L38.5382 21.7354C38.8059 21.7484 45.1339 22.0963 46.5203 25.5145L46.2397 25.6309Z" fill="url(#paint48_linear_3837_112081)"/>
<path d="M32.9849 16.6655C33.2255 18.2962 31.5093 21.1809 31.3153 21.2332C31.9969 23.2496 34.9895 22.6717 36.7354 22.5409C38.1813 22.4363 38.405 22.4611 38.7361 21.1888C38.9948 20.2159 38.9702 19.7176 39.137 18.7591C36.9604 17.1114 34.8007 18.1667 32.9849 16.6655Z" fill="url(#paint49_linear_3837_112081)"/>
<path style="mix-blend-mode:hard-light" d="M38.9973 19.7355C39.027 19.5001 39.0568 19.2556 39.102 18.9705C38.5847 18.8071 34.4359 18.0918 32.8542 18.0552C32.7312 18.511 32.5734 18.9565 32.3822 19.3877C34.5846 19.3968 36.8142 19.4635 38.9973 19.7355Z" fill="url(#paint50_linear_3837_112081)"/>
<path style="mix-blend-mode:hard-light" d="M50.62 31.743V28.7903C48.9646 29.6821 47.2769 30.5099 45.5762 31.3102C45.4391 31.3755 45.4469 36.4101 45.5969 36.2793C47.1669 34.8448 50.2217 32.0935 50.62 31.743Z" fill="url(#paint51_linear_3837_112081)"/>
<defs>
<radialGradient id="paint0_radial_3837_112081" cx="0" cy="0" r="1" gradientUnits="userSpaceOnUse" gradientTransform="translate(31.0482 59.8332) scale(35.3213 7.93656)">
<stop stop-color="#666666"/>
<stop offset="0.16" stop-color="#707070" stop-opacity="0.93"/>
<stop offset="0.4" stop-color="#8A8A8A" stop-opacity="0.74"/>
<stop offset="0.69" stop-color="#B6B6B6" stop-opacity="0.43"/>
<stop offset="1" stop-color="#F2F2F2" stop-opacity="0"/>
</radialGradient>
<linearGradient id="paint1_linear_3837_112081" x1="10.4912" y1="24.357" x2="32.6406" y2="52.1944" gradientUnits="userSpaceOnUse">
<stop stop-color="#20BEC6"/>
<stop offset="0.99" stop-color="#18999F"/>
</linearGradient>
<linearGradient id="paint2_linear_3837_112081" x1="8549.38" y1="7515.86" x2="8644.49" y2="15022.3" gradientUnits="userSpaceOnUse">
<stop stop-color="#20BEC6"/>
<stop offset="0.99" stop-color="#0E7E84"/>
</linearGradient>
<linearGradient id="paint3_linear_3837_112081" x1="3457.83" y1="1272.16" x2="3734.29" y2="1097.5" gradientUnits="userSpaceOnUse">
<stop stop-color="#CE2E2E"/>
<stop offset="0.99" stop-color="#AA1F1F"/>
</linearGradient>
<linearGradient id="paint4_linear_3837_112081" x1="42.7568" y1="39.615" x2="61.7172" y2="32.4606" gradientUnits="userSpaceOnUse">
<stop stop-color="white" stop-opacity="0.2"/>
<stop offset="1" stop-color="white" stop-opacity="0"/>
</linearGradient>
<linearGradient id="paint5_linear_3837_112081" x1="2443.74" y1="3102.8" x2="2918.79" y2="3190.64" gradientUnits="userSpaceOnUse">
<stop stop-color="#CE2E2E"/>
<stop offset="0.99" stop-color="#AA1F1F"/>
</linearGradient>
<linearGradient id="paint6_linear_3837_112081" x1="43.6778" y1="33.9241" x2="42.9016" y2="52.1719" gradientUnits="userSpaceOnUse">
<stop offset="0.01" stop-color="#20BEC6"/>
<stop offset="1" stop-color="#20BEC6"/>
</linearGradient>
<linearGradient id="paint7_linear_3837_112081" x1="2285.37" y1="2390.27" x2="2759.84" y2="2390.27" gradientUnits="userSpaceOnUse">
<stop stop-color="#CE2E2E"/>
<stop offset="0.99" stop-color="#AA1F1F"/>
</linearGradient>
<linearGradient id="paint8_linear_3837_112081" x1="-887.836" y1="2097.55" x2="-1362.3" y2="2097.55" gradientUnits="userSpaceOnUse">
<stop stop-color="#CE2E2E"/>
<stop offset="0.99" stop-color="#AA1F1F"/>
</linearGradient>
<linearGradient id="paint9_linear_3837_112081" x1="2307.59" y1="847.175" x2="2458.04" y2="762.308" gradientUnits="userSpaceOnUse">
<stop stop-color="#CE2E2E"/>
<stop offset="0.99" stop-color="#AA1F1F"/>
</linearGradient>
<linearGradient id="paint10_linear_3837_112081" x1="-1499.2" y1="1163.14" x2="-1709.96" y2="1043.35" gradientUnits="userSpaceOnUse">
<stop stop-color="#CE2E2E"/>
<stop offset="0.99" stop-color="#AA1F1F"/>
</linearGradient>
<linearGradient id="paint11_linear_3837_112081" x1="-814.84" y1="260.547" x2="-917.334" y2="113.67" gradientUnits="userSpaceOnUse">
<stop stop-color="#CE2E2E"/>
<stop offset="0.99" stop-color="#AA1F1F"/>
</linearGradient>
<linearGradient id="paint12_linear_3837_112081" x1="-901.514" y1="1198.39" x2="-1112.28" y2="1078.6" gradientUnits="userSpaceOnUse">
<stop stop-color="#CE2E2E"/>
<stop offset="0.99" stop-color="#AA1F1F"/>
</linearGradient>
<linearGradient id="paint13_linear_3837_112081" x1="-1396.25" y1="684.654" x2="-1859.98" y2="421.076" gradientUnits="userSpaceOnUse">
<stop stop-color="#CE2E2E"/>
<stop offset="0.99" stop-color="#AA1F1F"/>
</linearGradient>
<linearGradient id="paint14_linear_3837_112081" x1="-1215.18" y1="1681.22" x2="-1663.77" y2="1590.68" gradientUnits="userSpaceOnUse">
<stop stop-color="#CE2E2E"/>
<stop offset="0.99" stop-color="#AA1F1F"/>
</linearGradient>
<linearGradient id="paint15_linear_3837_112081" x1="2463.51" y1="570.389" x2="2613.96" y2="485.522" gradientUnits="userSpaceOnUse">
<stop stop-color="#CE2E2E"/>
<stop offset="0.99" stop-color="#AA1F1F"/>
</linearGradient>
<linearGradient id="paint16_linear_3837_112081" x1="2269.4" y1="259.803" x2="2419.88" y2="174.913" gradientUnits="userSpaceOnUse">
<stop stop-color="#CE2E2E"/>
<stop offset="0.99" stop-color="#AA1F1F"/>
</linearGradient>
<linearGradient id="paint17_linear_3837_112081" x1="4767.77" y1="3316.41" x2="4773.58" y2="4121.94" gradientUnits="userSpaceOnUse">
<stop stop-color="white" stop-opacity="0.2"/>
<stop offset="1" stop-color="white" stop-opacity="0"/>
</linearGradient>
<linearGradient id="paint18_linear_3837_112081" x1="1181.55" y1="2361.28" x2="1320.3" y2="2361.28" gradientUnits="userSpaceOnUse">
<stop stop-color="#CE2E2E"/>
<stop offset="0.99" stop-color="#AA1F1F"/>
</linearGradient>
<linearGradient id="paint19_linear_3837_112081" x1="2315.01" y1="3221.75" x2="2773.63" y2="3221.75" gradientUnits="userSpaceOnUse">
<stop stop-color="#CE2E2E"/>
<stop offset="0.99" stop-color="#AA1F1F"/>
</linearGradient>
<linearGradient id="paint20_linear_3837_112081" x1="27.7938" y1="31.5417" x2="54.3858" y2="29.889" gradientUnits="userSpaceOnUse">
<stop offset="0.1" stop-color="white" stop-opacity="0.4"/>
<stop offset="0.34" stop-color="white" stop-opacity="0.6"/>
<stop offset="1" stop-color="white" stop-opacity="0.1"/>
</linearGradient>
<linearGradient id="paint21_linear_3837_112081" x1="52.1836" y1="39.6271" x2="47.7011" y2="51.0946" gradientUnits="userSpaceOnUse">
<stop offset="0.1" stop-color="white" stop-opacity="0.1"/>
<stop offset="0.51" stop-color="white" stop-opacity="0.4"/>
<stop offset="0.99" stop-color="white" stop-opacity="0.1"/>
</linearGradient>
<linearGradient id="paint22_linear_3837_112081" x1="1627.4" y1="1842.85" x2="1813.66" y2="1842.85" gradientUnits="userSpaceOnUse">
<stop stop-color="#CE2E2E"/>
<stop offset="0.99" stop-color="#AA1F1F"/>
</linearGradient>
<linearGradient id="paint23_linear_3837_112081" x1="2369.27" y1="1761.5" x2="2613.31" y2="1761.5" gradientUnits="userSpaceOnUse">
<stop stop-color="#CE2E2E"/>
<stop offset="0.99" stop-color="#AA1F1F"/>
</linearGradient>
<linearGradient id="paint24_linear_3837_112081" x1="1221.46" y1="1605.41" x2="1277.14" y2="1605.41" gradientUnits="userSpaceOnUse">
<stop stop-color="#CE2E2E"/>
<stop offset="0.99" stop-color="#AA1F1F"/>
</linearGradient>
<linearGradient id="paint25_linear_3837_112081" x1="1528.3" y1="1761.89" x2="1620.15" y2="1761.89" gradientUnits="userSpaceOnUse">
<stop stop-color="#CE2E2E"/>
<stop offset="0.99" stop-color="#AA1F1F"/>
</linearGradient>
<linearGradient id="paint26_linear_3837_112081" x1="366.534" y1="2726.45" x2="508.483" y2="2726.45" gradientUnits="userSpaceOnUse">
<stop stop-color="#CE2E2E"/>
<stop offset="0.99" stop-color="#AA1F1F"/>
</linearGradient>
<linearGradient id="paint27_linear_3837_112081" x1="834.037" y1="1719.02" x2="1036.43" y2="1719.02" gradientUnits="userSpaceOnUse">
<stop stop-color="#CE2E2E"/>
<stop offset="0.99" stop-color="#AA1F1F"/>
</linearGradient>
<linearGradient id="paint28_linear_3837_112081" x1="490.115" y1="1464.5" x2="514.354" y2="1464.5" gradientUnits="userSpaceOnUse">
<stop stop-color="#CE2E2E"/>
<stop offset="0.99" stop-color="#AA1F1F"/>
</linearGradient>
<linearGradient id="paint29_linear_3837_112081" x1="673.44" y1="3773.64" x2="451.396" y2="4847.74" gradientUnits="userSpaceOnUse">
<stop offset="0.1" stop-color="white" stop-opacity="0.4"/>
<stop offset="0.34" stop-color="white" stop-opacity="0.6"/>
<stop offset="1" stop-color="white" stop-opacity="0.1"/>
</linearGradient>
<linearGradient id="paint30_linear_3837_112081" x1="1847.21" y1="409.564" x2="3309.85" y2="293.841" gradientUnits="userSpaceOnUse">
<stop stop-color="#20BEC6"/>
<stop offset="0.99" stop-color="#1C6165"/>
</linearGradient>
<linearGradient id="paint31_linear_3837_112081" x1="3268.82" y1="378.199" x2="4731.46" y2="262.476" gradientUnits="userSpaceOnUse">
<stop stop-color="#199298"/>
<stop offset="0.99" stop-color="#035559"/>
</linearGradient>
<linearGradient id="paint32_linear_3837_112081" x1="2292.06" y1="200.763" x2="3096.74" y2="137.097" gradientUnits="userSpaceOnUse">
<stop stop-color="#CE2E2E"/>
<stop offset="0.99" stop-color="#AA1F1F"/>
</linearGradient>
<linearGradient id="paint33_linear_3837_112081" x1="3429.68" y1="176.409" x2="4234.15" y2="112.76" gradientUnits="userSpaceOnUse">
<stop stop-color="#1B949A"/>
<stop offset="0.99" stop-color="#1C6165"/>
</linearGradient>
<linearGradient id="paint34_linear_3837_112081" x1="1717.01" y1="82.089" x2="1994.56" y2="60.1296" gradientUnits="userSpaceOnUse">
<stop stop-color="#CE2E2E"/>
<stop offset="0.99" stop-color="#AA1F1F"/>
</linearGradient>
<linearGradient id="paint35_linear_3837_112081" x1="34.6119" y1="19.4687" x2="25.2941" y2="57.116" gradientUnits="userSpaceOnUse">
<stop offset="0.06" stop-color="#B42F1B"/>
<stop offset="0.16" stop-color="#F17600"/>
<stop offset="0.27" stop-color="#FFC82A"/>
<stop offset="0.31" stop-color="#FABD29"/>
<stop offset="0.54" stop-color="#E18821"/>
<stop offset="0.74" stop-color="#CE611C"/>
<stop offset="0.9" stop-color="#C34A18"/>
<stop offset="1" stop-color="#BF4117"/>
</linearGradient>
<linearGradient id="paint36_linear_3837_112081" x1="34.4942" y1="19.5097" x2="43.9626" y2="57.7694" gradientUnits="userSpaceOnUse">
<stop offset="0.06" stop-color="#B42F1B"/>
<stop offset="0.16" stop-color="#F17600"/>
<stop offset="0.29" stop-color="#FFE655"/>
<stop offset="0.6" stop-color="#FFAA00"/>
<stop offset="1" stop-color="#CC5712"/>
</linearGradient>
<linearGradient id="paint37_linear_3837_112081" x1="35.4938" y1="16.9503" x2="53.9646" y2="2.51774" gradientUnits="userSpaceOnUse">
<stop offset="0.06" stop-color="#B42F1B"/>
<stop offset="0.33" stop-color="#F17600"/>
<stop offset="0.65" stop-color="#F1AB26"/>
<stop offset="0.74" stop-color="#E08821"/>
<stop offset="0.85" stop-color="#CE611C"/>
<stop offset="0.94" stop-color="#C34A18"/>
<stop offset="1" stop-color="#BF4117"/>
</linearGradient>
<linearGradient id="paint38_linear_3837_112081" x1="36.2868" y1="18.631" x2="56.1786" y2="7.20366" gradientUnits="userSpaceOnUse">
<stop offset="0.2" stop-color="#E96640"/>
<stop offset="0.51" stop-color="#FFC82A"/>
<stop offset="0.52" stop-color="#FFC92C"/>
<stop offset="0.65" stop-color="#FFDE4A"/>
<stop offset="0.73" stop-color="#FFE655"/>
<stop offset="0.85" stop-color="#F3BF3F"/>
<stop offset="0.98" stop-color="#D36A1E"/>
</linearGradient>
<linearGradient id="paint39_linear_3837_112081" x1="35.5469" y1="10.1541" x2="51.6857" y2="10.1541" gradientUnits="userSpaceOnUse">
<stop stop-color="#F17600"/>
<stop offset="0.38" stop-color="#FFC82A"/>
<stop offset="0.4" stop-color="#FFC92C"/>
<stop offset="0.61" stop-color="#FFDE4A"/>
<stop offset="0.73" stop-color="#FFE655"/>
<stop offset="1" stop-color="#FFD394"/>
</linearGradient>
<linearGradient id="paint40_linear_3837_112081" x1="2023.93" y1="1136.14" x2="3075" y2="542.251" gradientUnits="userSpaceOnUse">
<stop offset="0.1" stop-color="white" stop-opacity="0.4"/>
<stop offset="0.34" stop-color="white" stop-opacity="0.6"/>
<stop offset="1" stop-color="white" stop-opacity="0.1"/>
</linearGradient>
<linearGradient id="paint41_linear_3837_112081" x1="2379.88" y1="1072.01" x2="4252.12" y2="2793.78" gradientUnits="userSpaceOnUse">
<stop offset="0.06" stop-color="#B42F1B"/>
<stop offset="0.33" stop-color="#F17600"/>
<stop offset="0.65" stop-color="#F1AB26"/>
<stop offset="0.74" stop-color="#E08821"/>
<stop offset="0.85" stop-color="#CE611C"/>
<stop offset="0.94" stop-color="#C34A18"/>
<stop offset="1" stop-color="#BF4117"/>
</linearGradient>
<linearGradient id="paint42_linear_3837_112081" x1="9.86762" y1="1.3643" x2="35.1223" y2="17.7557" gradientUnits="userSpaceOnUse">
<stop offset="0.12" stop-color="#F8A116"/>
<stop offset="0.28" stop-color="#D56F1F"/>
<stop offset="0.42" stop-color="#EEA526"/>
<stop offset="0.51" stop-color="#FFC82A"/>
<stop offset="0.52" stop-color="#FFC92C"/>
<stop offset="0.65" stop-color="#FFDE4A"/>
<stop offset="0.73" stop-color="#FFE655"/>
<stop offset="0.85" stop-color="#F3BF3F"/>
<stop offset="1" stop-color="#D36A1E"/>
</linearGradient>
<linearGradient id="paint43_linear_3837_112081" x1="656.069" y1="-174.337" x2="2239.21" y2="489.668" gradientUnits="userSpaceOnUse">
<stop offset="0.1" stop-color="white" stop-opacity="0.4"/>
<stop offset="0.34" stop-color="white" stop-opacity="0.6"/>
<stop offset="1" stop-color="white" stop-opacity="0.1"/>
</linearGradient>
<linearGradient id="paint44_linear_3837_112081" x1="2000.78" y1="1367.53" x2="4320.32" y2="1367.53" gradientUnits="userSpaceOnUse">
<stop stop-color="#F17600"/>
<stop offset="0.38" stop-color="#FFC82A"/>
<stop offset="0.4" stop-color="#FFC92C"/>
<stop offset="0.61" stop-color="#FFDE4A"/>
<stop offset="0.73" stop-color="#FFE655"/>
<stop offset="1" stop-color="#FFD394"/>
</linearGradient>
<linearGradient id="paint45_linear_3837_112081" x1="32.218" y1="18.9259" x2="20.7464" y2="26.7162" gradientUnits="userSpaceOnUse">
<stop offset="0.06" stop-color="#B42F1B"/>
<stop offset="0.35" stop-color="#F17600"/>
<stop offset="0.71" stop-color="#FFC82A"/>
<stop offset="0.72" stop-color="#FFC92C"/>
<stop offset="0.9" stop-color="#FFDE4A"/>
<stop offset="0.99" stop-color="#FFE655"/>
</linearGradient>
<linearGradient id="paint46_linear_3837_112081" x1="1760.31" y1="1173.52" x2="1325.36" y2="1470.38" gradientUnits="userSpaceOnUse">
<stop stop-color="#F17600"/>
<stop offset="0.38" stop-color="#FFC82A"/>
<stop offset="0.4" stop-color="#FFC92C"/>
<stop offset="0.61" stop-color="#FFDE4A"/>
<stop offset="0.73" stop-color="#FFE655"/>
<stop offset="1" stop-color="#FFD394"/>
</linearGradient>
<linearGradient id="paint47_linear_3837_112081" x1="3376.99" y1="1206.27" x2="4516.81" y2="1206.27" gradientUnits="userSpaceOnUse">
<stop offset="0.06" stop-color="#B42F1B"/>
<stop offset="0.35" stop-color="#F17600"/>
<stop offset="0.71" stop-color="#FFC82A"/>
<stop offset="0.72" stop-color="#FFC92C"/>
<stop offset="0.9" stop-color="#FFDE4A"/>
<stop offset="0.99" stop-color="#FFE655"/>
</linearGradient>
<linearGradient id="paint48_linear_3837_112081" x1="2420.77" y1="727.258" x2="2915.34" y2="727.258" gradientUnits="userSpaceOnUse">
<stop stop-color="#F17600"/>
<stop offset="0.38" stop-color="#FFC82A"/>
<stop offset="0.4" stop-color="#FFC92C"/>
<stop offset="0.61" stop-color="#FFDE4A"/>
<stop offset="0.73" stop-color="#FFE655"/>
<stop offset="1" stop-color="#FFD394"/>
</linearGradient>
<linearGradient id="paint49_linear_3837_112081" x1="34.0467" y1="25.0385" x2="36.4207" y2="15.9551" gradientUnits="userSpaceOnUse">
<stop stop-color="#F89D14"/>
<stop offset="0.04" stop-color="#E78117"/>
<stop offset="0.09" stop-color="#D46219"/>
<stop offset="0.13" stop-color="#C64C1B"/>
<stop offset="0.18" stop-color="#BE3F1D"/>
<stop offset="0.22" stop-color="#BB3A1D"/>
<stop offset="0.26" stop-color="#C0401B"/>
<stop offset="0.32" stop-color="#CD5116"/>
<stop offset="0.39" stop-color="#E36D0E"/>
<stop offset="0.43" stop-color="#F48408"/>
<stop offset="0.65" stop-color="#FFC82A"/>
<stop offset="0.67" stop-color="#FFC92C"/>
<stop offset="0.88" stop-color="#FFDE4A"/>
<stop offset="0.99" stop-color="#FFE655"/>
</linearGradient>
<linearGradient id="paint50_linear_3837_112081" x1="1898.48" y1="251.876" x2="1895.59" y2="321.471" gradientUnits="userSpaceOnUse">
<stop offset="0.1" stop-color="white" stop-opacity="0.4"/>
<stop offset="0.34" stop-color="white" stop-opacity="0.6"/>
<stop offset="1" stop-color="white" stop-opacity="0.1"/>
</linearGradient>
<linearGradient id="paint51_linear_3837_112081" x1="-2408.17" y1="1037.15" x2="-1702.9" y2="3014.71" gradientUnits="userSpaceOnUse">
<stop offset="0.1" stop-color="white" stop-opacity="0.4"/>
<stop offset="0.34" stop-color="white" stop-opacity="0.6"/>
<stop offset="1" stop-color="white" stop-opacity="0.1"/>
</linearGradient>
</defs>
</svg>
