<svg width="50" height="52" viewBox="0 0 50 52" fill="none" xmlns="http://www.w3.org/2000/svg">
<path d="M22.1033 0.0255394C20.7586 0.155029 19.1449 0.433937 18.0193 0.712845C9.58242 2.83452 2.80898 9.60796 0.687305 18.0449C0.149414 20.2064 0 21.4515 0 23.9218C0 26.4021 0.139453 27.6472 0.677344 29.7888C1.80293 34.2314 4.01426 38.0564 7.28145 41.2041C10.6482 44.4513 14.6227 46.5531 19.135 47.4794C20.3303 47.7285 20.9578 47.7285 21.4359 47.4894C22.7309 46.822 22.9201 45.1884 21.8244 44.2222C21.5555 43.9832 21.2766 43.8636 20.6889 43.7441C19.0752 43.3955 17.9297 43.0867 16.9934 42.738C13.1086 41.2837 9.68203 38.5544 7.33125 35.0482C2.00215 27.1193 3.05801 16.5507 9.83144 9.81714C13.7859 5.88257 19.1748 3.76089 24.6434 3.98003C28.817 4.14937 32.5822 5.48413 35.9291 7.96441C36.9252 8.70152 38.6883 10.4048 39.515 11.4209C41.577 13.9709 43.0312 17.1285 43.6189 20.3359C43.9078 21.8898 44.0971 22.2982 44.7346 22.6867C45.0334 22.8759 45.2525 22.9257 45.7805 22.9257C46.3582 22.9257 46.4977 22.8859 46.8662 22.6269C47.3443 22.2882 47.6631 21.7503 47.7229 21.1527C47.7926 20.565 47.2547 18.015 46.7467 16.5009C45.5812 12.9947 43.7684 9.98648 41.2283 7.35679C37.4232 3.4023 32.7715 1.02163 27.283 0.204834C26.3268 0.0653839 22.9201 -0.0541496 22.1033 0.0255394Z" fill="#20BCC6"/>
<path d="M24.269 8.24731C23.8207 8.37681 23.1932 9.04419 23.0637 9.50239C22.994 9.75142 22.9541 12.3014 22.9541 17.0129V24.145L19.3782 27.7807C16.2405 30.9782 15.7823 31.4762 15.6827 31.8547C15.4436 32.7413 15.7623 33.6278 16.5094 34.1159C17.0373 34.4745 18.0434 34.4944 18.5514 34.1756C18.7307 34.0661 20.6432 32.1735 22.8047 29.9821C26.1217 26.6053 26.7393 25.928 26.8389 25.5893C26.9086 25.3104 26.9385 22.7704 26.9186 17.3317L26.8887 9.48247L26.6496 9.10395C26.1815 8.34692 25.1455 7.97837 24.269 8.24731Z" fill="#20BCC6"/>
<path d="M38.4744 31.0259C35.8415 31.3613 33.6802 32.4297 31.8962 34.278C30.4736 35.752 29.6012 37.4054 29.1533 39.4877C28.9489 40.4079 28.9489 42.6072 29.1533 43.5275C29.8606 46.7952 31.9119 49.4546 34.8513 50.9208C35.6215 51.303 36.6668 51.6617 37.6099 51.8567C38.5451 52.0517 40.6121 52.0439 41.5395 51.8567C43.8502 51.3732 45.6735 50.3749 47.2454 48.7371C48.3693 47.5751 49.1631 46.2571 49.6346 44.7987C50.1455 43.2389 50.1219 42.615 49.556 42.0535C48.888 41.3906 47.7327 41.4686 47.1904 42.2251C47.0961 42.3499 46.931 42.7944 46.8288 43.2077C46.1294 45.9451 44.1252 47.965 41.3823 48.6903C40.8243 48.8463 40.5257 48.8697 39.5354 48.8697C38.1129 48.8619 37.4998 48.7215 36.2974 48.1366C30.7251 45.4148 30.733 37.577 36.3052 34.8786C37.5234 34.2858 38.1207 34.1533 39.5354 34.1533C40.3763 34.1533 40.8636 34.1845 41.2252 34.278C41.9089 34.4496 42.2862 34.4418 42.7027 34.2468C43.6144 33.8023 43.8502 32.6325 43.1743 31.8682C42.852 31.5016 42.6163 31.3925 41.7517 31.2053C41.0444 31.0571 39.0953 30.9479 38.4744 31.0259Z" fill="#20BCC6"/>
<path d="M46.1614 35.5479C45.9707 35.6066 45.2961 36.2301 43.5216 37.9832C42.2091 39.2816 40.7645 40.7046 40.3172 41.1447L39.496 41.9516L38.4107 40.888C37.4795 39.9711 37.2741 39.8097 36.9808 39.729C35.7489 39.3843 34.6857 40.6093 35.2357 41.7389C35.419 42.1203 37.8754 44.563 38.2787 44.7684C39.012 45.1351 39.8919 45.1351 40.6545 44.7684C41.1385 44.5337 47.6573 38.1006 47.9432 37.5798C48.1852 37.125 48.1925 36.7949 47.9652 36.2961C47.6573 35.6432 46.902 35.3278 46.1614 35.5479Z" fill="#20BCC6"/>
</svg>
