<svg fill="#000000" xmlns="http://www.w3.org/2000/svg"  viewBox="0 0 50 50" width="50px" height="50px"><path d="M 25 4 C 23.910156 4 21.316406 4.148438 18.84375 5.28125 C 16.757813 6.234375 14.832031 8.113281 14.25 10.96875 C 12.125 9.882813 10.09375 10 10.09375 10 C 9.753906 10.023438 9.453125 10.21875 9.289063 10.511719 C 9.125 10.808594 9.121094 11.167969 9.28125 11.46875 C 9.28125 11.46875 12.125 16.582031 12.90625 22.625 C 10.046875 24.851563 9 28.148438 9 31.21875 C 9 36.300781 13.78125 39.40625 13.78125 39.40625 C 13.839844 39.445313 13.902344 39.476563 13.96875 39.5 C 13.976563 39.503906 13.992188 39.496094 14 39.5 C 14.019531 39.511719 14.042969 39.523438 14.0625 39.53125 C 14.992188 40.253906 16.203125 40.84375 17.3125 41.28125 C 18.523438 41.757813 19.492188 42.054688 19.625 42.09375 L 20.53125 42.375 C 22.070313 44.035156 24.78125 45.972656 29.375 47.1875 L 29.84375 47.3125 C 30.136719 47.386719 30.449219 47.328125 30.695313 47.144531 C 30.9375 46.960938 31.085938 46.679688 31.09375 46.375 L 31.125 45.90625 C 31.285156 41.65625 31.90625 39.152344 32.25 38 C 32.6875 37.949219 33.101563 37.914063 33.75 37.78125 C 34.667969 37.59375 35.652344 37.292969 36.46875 36.6875 L 36.46875 36.71875 C 36.488281 36.707031 36.511719 36.699219 36.53125 36.6875 C 36.542969 36.679688 36.550781 36.664063 36.5625 36.65625 C 42.84375 32.667969 44.96875 24.25 44.96875 24.25 C 45.058594 23.921875 44.976563 23.570313 44.746094 23.316406 C 44.519531 23.066406 44.179688 22.945313 43.84375 23 C 43.671875 23.03125 43.507813 23.105469 43.375 23.21875 C 43.375 23.21875 38.859375 26.902344 33 28.4375 C 32.871094 27.332031 32.519531 26.160156 31.96875 25 C 31.371094 23.738281 30.628906 22.648438 29.8125 21.84375 C 29.3125 21.351563 28.765625 20.96875 28.1875 20.71875 C 28.015625 20.351563 27.835938 20.007813 27.65625 19.71875 C 27.542969 19.539063 27.453125 19.367188 27.375 19.25 C 27.386719 19.210938 27.410156 19.015625 27.59375 18.71875 C 27.800781 18.382813 28.09375 18.023438 28.21875 17.90625 C 28.292969 17.84375 28.355469 17.769531 28.40625 17.6875 L 28.4375 17.625 C 31.457031 19.867188 33.09375 23.40625 33.09375 23.40625 C 33.28125 23.820313 33.71875 24.054688 34.167969 23.980469 C 34.613281 23.90625 34.953125 23.542969 35 23.09375 C 35 23.09375 35.109375 22.089844 35.03125 20.78125 C 35 20.261719 34.890625 19.679688 34.78125 19.09375 C 36.136719 19.917969 37.34375 20.78125 37.34375 20.78125 C 37.652344 21.050781 38.09375 21.105469 38.457031 20.921875 C 38.824219 20.734375 39.039063 20.34375 39 19.9375 C 39 19.9375 38.863281 18.332031 37.71875 16.375 C 37.027344 15.195313 35.765625 13.863281 34.15625 12.5625 C 34.941406 12.746094 35.71875 12.96875 35.71875 12.96875 C 36.121094 13.085938 36.550781 12.945313 36.800781 12.609375 C 37.054688 12.277344 37.070313 11.820313 36.84375 11.46875 C 36.84375 11.46875 33.535156 6 28 6 C 26.832031 6 25.769531 6.15625 24.78125 6.375 C 25.007813 6.238281 25.222656 6.015625 25.4375 5.90625 C 25.863281 5.707031 26.09375 5.234375 25.988281 4.777344 C 25.882813 4.316406 25.472656 3.992188 25 4 Z M 21.03125 6.71875 C 20.257813 7.460938 19.738281 8.117188 19.34375 8.78125 C 19.308594 8.808594 19.292969 8.835938 19.28125 8.84375 C 19.210938 8.964844 19.023438 9.097656 18.96875 9.21875 C 18.785156 9.636719 18.914063 10.125 19.273438 10.40625 C 19.632813 10.6875 20.140625 10.6875 20.5 10.40625 C 20.535156 10.378906 20.582031 10.382813 20.59375 10.375 C 21.421875 9.71875 24.339844 8 28 8 C 30.203125 8 31.972656 9.210938 33.25 10.40625 C 32.210938 10.214844 31.105469 10 30 10 C 29.527344 9.992188 29.117188 10.316406 29.011719 10.777344 C 28.90625 11.234375 29.136719 11.707031 29.5625 11.90625 C 33.210938 13.660156 35.046875 15.746094 36 17.375 C 36.023438 17.414063 36.007813 17.398438 36.03125 17.4375 C 35.175781 16.90625 34.289063 16.335938 33.3125 16.03125 C 32.90625 15.894531 32.457031 16.027344 32.195313 16.367188 C 31.933594 16.707031 31.917969 17.175781 32.15625 17.53125 C 32.347656 17.835938 32.34375 18.320313 32.46875 18.71875 C 30.867188 16.753906 28.46875 14.671875 25.1875 14.03125 C 24.816406 13.894531 24.398438 13.988281 24.121094 14.273438 C 23.84375 14.558594 23.765625 14.980469 23.914063 15.347656 C 24.0625 15.714844 24.417969 15.957031 24.8125 15.96875 C 25.492188 16.101563 26.117188 16.34375 26.71875 16.625 L 26.6875 16.6875 C 26.441406 16.941406 26.144531 17.21875 25.875 17.65625 C 25.835938 17.71875 25.785156 17.777344 25.75 17.84375 C 25.316406 17.875 24.9375 18.027344 24.65625 18.15625 C 24.230469 18.351563 23.9375 18.5625 23.9375 18.5625 C 23.496094 18.898438 23.414063 19.527344 23.75 19.96875 C 24.085938 20.410156 24.714844 20.492188 25.15625 20.15625 C 25.15625 20.15625 25.289063 20.074219 25.4375 20 C 25.5 20.132813 25.535156 20.144531 25.5625 20.1875 C 25.59375 20.234375 25.648438 20.285156 25.6875 20.34375 C 25.753906 20.445313 25.820313 20.585938 25.90625 20.71875 C 25.25 21.074219 24.820313 21.726563 24.625 22.40625 C 24.589844 22.527344 24.554688 22.65625 24.53125 22.78125 C 23.5625 22.136719 22.539063 21.75 21.5 21.75 C 20.863281 21.75 20.214844 21.964844 19.6875 22.3125 C 19.679688 22.316406 19.664063 22.308594 19.65625 22.3125 C 18.453125 23.144531 18.015625 24.707031 18.21875 26.375 C 18.367188 27.613281 18.8125 28.90625 19.5 30.15625 C 16.839844 30.503906 15.097656 32.097656 14.28125 33.25 C 13.667969 34.113281 13.269531 35.109375 13.125 36.125 C 12.085938 34.953125 11 33.234375 11 31.21875 C 11 28.378906 11.882813 25.628906 14.5625 23.84375 C 14.871094 23.636719 15.039063 23.277344 15 22.90625 C 14.433594 17.703125 12.726563 14.003906 11.8125 12.1875 C 12.582031 12.359375 13.519531 12.667969 14.375 13.375 C 14.675781 13.617188 15.085938 13.664063 15.433594 13.496094 C 15.78125 13.328125 16 12.976563 16 12.59375 C 16 9.507813 17.648438 8.027344 19.6875 7.09375 C 20.128906 6.890625 20.574219 6.855469 21.03125 6.71875 Z M 20.1875 18.21875 C 19.691406 18.242188 19.121094 18.359375 18.5625 18.65625 C 15.957031 20.042969 15.9375 23.03125 15.9375 23.03125 C 15.933594 23.390625 16.121094 23.726563 16.433594 23.910156 C 16.746094 24.089844 17.128906 24.089844 17.441406 23.910156 C 17.753906 23.726563 17.941406 23.390625 17.9375 23.03125 C 17.9375 23.03125 17.945313 21.234375 19.5 20.40625 C 19.996094 20.140625 21.09375 20.3125 21.09375 20.3125 C 21.453125 20.472656 21.871094 20.40625 22.164063 20.144531 C 22.457031 19.886719 22.570313 19.476563 22.453125 19.101563 C 22.339844 18.726563 22.015625 18.457031 21.625 18.40625 C 21.625 18.40625 21.234375 18.257813 20.65625 18.21875 C 20.511719 18.210938 20.351563 18.210938 20.1875 18.21875 Z M 27.03125 22.4375 C 27.234375 22.4375 27.800781 22.683594 28.40625 23.28125 C 29.011719 23.878906 29.644531 24.769531 30.15625 25.84375 C 30.65625 26.898438 30.949219 27.976563 31.03125 28.84375 C 30.992188 28.851563 30.945313 28.835938 30.90625 28.84375 C 30.921875 28.644531 30.871094 28.398438 30.71875 28.03125 C 30.171875 26.726563 29.21875 25.863281 28.59375 26.125 C 28.359375 26.222656 28.199219 26.449219 28.125 26.78125 C 27.988281 26.550781 27.871094 26.320313 27.71875 26.09375 C 27.34375 25.539063 26.953125 25.007813 26.53125 24.53125 C 26.53125 24.511719 26.53125 24.488281 26.53125 24.46875 C 26.4375 23.820313 26.46875 23.269531 26.5625 22.9375 C 26.65625 22.605469 26.742188 22.519531 26.84375 22.46875 C 26.886719 22.449219 26.957031 22.4375 27.03125 22.4375 Z M 21.5 23.75 C 22.554688 23.75 24.628906 25.050781 26.0625 27.1875 C 26.761719 28.226563 27.246094 29.28125 27.5 30.21875 C 27.511719 30.304688 27.53125 30.386719 27.5625 30.46875 C 27.621094 30.726563 27.664063 30.984375 27.6875 31.21875 C 27.800781 32.351563 27.523438 33.023438 27.09375 33.3125 C 26.90625 33.4375 26.683594 33.5 26.375 33.5 C 26.117188 33.5 25.792969 33.398438 25.4375 33.25 C 25.652344 33.253906 25.828125 33.214844 25.96875 33.09375 C 26.53125 32.613281 26.195313 31.242188 25.1875 30.0625 C 24.179688 28.882813 22.875 28.332031 22.3125 28.8125 C 21.867188 29.195313 22.019531 30.109375 22.59375 31.0625 C 22.320313 30.75 22.058594 30.425781 21.8125 30.0625 C 20.921875 28.738281 20.359375 27.324219 20.21875 26.15625 C 20.070313 24.910156 20.351563 24.257813 20.78125 23.96875 C 20.964844 23.84375 21.191406 23.75 21.5 23.75 Z M 41.875 26.5625 C 40.84375 29.140625 39.074219 32.746094 35.40625 35.03125 C 35.382813 35.050781 35.363281 35.070313 35.34375 35.09375 C 35.019531 35.347656 34.160156 35.644531 33.34375 35.8125 C 32.527344 35.980469 31.769531 36.042969 31.34375 36.09375 C 30.953125 36.136719 30.621094 36.40625 30.5 36.78125 C 30.191406 37.722656 29.476563 40.632813 29.21875 45 C 23.914063 43.417969 21.667969 40.917969 21 39.71875 C 20.8125 39.375 20.441406 39.175781 20.054688 39.199219 C 19.664063 39.226563 19.324219 39.480469 19.1875 39.84375 C 18.832031 39.71875 18.464844 39.578125 18.03125 39.40625 C 16.960938 38.984375 15.820313 38.386719 15.25 37.9375 C 14.960938 36.871094 15.15625 35.460938 15.90625 34.40625 C 16.535156 33.519531 18.039063 32.0625 20.53125 32.0625 C 20.59375 32.058594 20.65625 32.046875 20.71875 32.03125 C 22.320313 34.09375 24.34375 35.5 26.375 35.5 C 27.023438 35.5 27.65625 35.324219 28.1875 34.96875 C 29.421875 34.140625 29.808594 32.597656 29.65625 31.03125 C 35.3125 30.636719 39.378906 28.253906 41.875 26.5625 Z M 29 26.96875 C 29.261719 26.890625 29.570313 27.160156 29.6875 27.5625 C 29.804688 27.964844 29.699219 28.359375 29.4375 28.4375 C 29.175781 28.515625 28.867188 28.246094 28.75 27.84375 C 28.632813 27.441406 28.738281 27.046875 29 26.96875 Z M 23.125 30.0625 C 23.402344 30.066406 23.730469 30.300781 23.96875 30.65625 C 24.289063 31.128906 24.320313 31.648438 24.03125 31.84375 C 23.742188 32.039063 23.226563 31.816406 22.90625 31.34375 C 22.585938 30.871094 22.585938 30.351563 22.875 30.15625 C 22.949219 30.105469 23.03125 30.0625 23.125 30.0625 Z M 21.375 35.0625 C 20.875 35.105469 20.292969 35.261719 19.71875 35.71875 C 19.023438 36.273438 19.03125 37.375 19.03125 37.375 C 19.03125 37.375 20.121094 36.929688 20.6875 36.71875 C 21.496094 36.71875 22.695313 38.773438 24.03125 40.34375 C 25.316406 41.851563 27.96875 42.875 27.96875 42.875 C 27.941406 39.410156 28.96875 36.78125 28.96875 36.78125 C 28.96875 36.78125 28.496094 36.875 26.375 36.875 C 24.253906 36.875 21.6875 36.433594 21.6875 36.125 L 22.8125 35.28125 C 22.8125 35.28125 22.207031 34.992188 21.375 35.0625 Z M 23.84375 37.53125 C 23.875 37.515625 23.890625 37.523438 23.9375 37.53125 C 24.605469 37.617188 25.1875 38.34375 25.1875 38.34375 C 25.1875 38.34375 25.296875 37.792969 25.6875 37.875 C 26.535156 38.050781 26.375 40.625 26.375 40.625 C 26.375 40.625 25.292969 40.417969 24.40625 39.21875 C 24.121094 38.832031 24.015625 38.714844 23.8125 38.40625 C 23.726563 38.277344 23.617188 37.648438 23.84375 37.53125 Z"/></svg>