<svg width="64" height="52" viewBox="0 0 64 52" fill="none" xmlns="http://www.w3.org/2000/svg">
<path d="M26 35H8V8C8 6.4087 8.63214 4.88258 9.75736 3.75736C10.8826 2.63214 12.4087 2 14 2H50C51.5913 2 53.1174 2.63214 54.2426 3.75736C55.3679 4.88258 56 6.4087 56 8V14M2 44H38" stroke="#20BCC6" stroke-width="4" stroke-linecap="round" stroke-linejoin="round"/>
<path d="M50 41H50.03M38 17.6C38 15.611 39.791 14 41.999 14H58.001C60.209 14 62 15.611 62 17.6V46.4C62 48.389 60.209 50 58.001 50H41.999C39.791 50 38 48.389 38 46.4V17.6Z" stroke="#20BCC6" stroke-width="4" stroke-linecap="round" stroke-linejoin="round"/>
</svg>
